<svg version="1" xmlns="http://www.w3.org/2000/svg" width="682.667" height="682.667" viewBox="0 0 512.000000 512.000000"><path d="M362.8 26.4c-.3.3-10.2.8-45.8 2.2-22.2.9-31.7 4-45.7 14.5-16.2 12.3-33.5 35-37.9 49.8-1.8 6.3-1.7 16.6.4 23.6 2.7 9.3 14.7 30.6 24.9 44.2 7.2 9.7 38.2 40.3 43.3 42.8 4.6 2.3 4.6 2.4 5.5 12 .3 3.8 1.5 10.6 2.6 15 1.2 4.4 2.3 11.6 2.4 16 .2 4.4 1.1 10.9 1.9 14.5 1.5 6 1.6 19.5.3 35.5l-.3 4-20.5.1c-19.6.1-54.6 1.2-61.9 1.9-1.9.1-7.5.6-12.5 1-4.9.4-9.8.9-10.7 1-.9.2-4.8.7-8.5 1-3.7.4-7 .9-7.3 1-.3.2-3.4.6-7 1-3.5.3-6.7.8-7.1 1.1-.4.2-2.8.6-5.5.9-2.7.3-6.5 1-8.4 1.5-1.9.5-5 1.2-6.8 1.5-22.7 3.9-72.1 17.8-86.9 24.5-30.3 13.7-40.2 42.5-23.6 69.2L50 410l-3.3 1.3c-5.7 2.4-8.2 8.4-6.2 14.7.9 2.7.9 2.7 8.5 9 3 2.4 9.1 7.6 13.5 11.5 21.3 18.9 40.3 27.3 72 32.1 5.5.8 11.1 1.6 12.5 1.9 1.4.2 5 .6 8 1 3 .3 7.1.8 9 1 1.9.3 8 .7 13.5 1 5.5.3 12.3.8 15 1 19.3 1.5 31.9 1.9 60.5 1.9 28.3.1 52.5-.7 58.6-1.8 1.1-.2 5-.7 8.7-1.1 3.7-.3 7.6-.8 8.6-1 1-.2 4.2-.6 7.2-1s5.6-.8 5.9-1c.3-.2 2.5-.6 5-.9 8.7-1.2 21-3.9 37.3-8.2 21.8-5.9 40.1-13.3 75.4-30.5 17-8.3 20.5-10.3 21.8-12.9 3.4-6.5 1.2-13.5-5.2-16.5-3.7-1.8-6.6-1.6-12.7 1-1.6.7-1.5.3.7-3.6 12.1-20.6 9.4-38.3-8.7-56.4-16.4-16.4-47-34.2-72.6-42.1-9.7-3-35.2-7.6-42.9-7.6-2.3 0-2.3-.1-1.5-8.7 1.2-13.6 1.1-26-.3-33.6-.8-3.9-1.6-9.5-1.8-12.5-1.2-14.1-1.6-17.1-3.1-21.9-.8-2.9-1.7-6.7-1.9-8.5l-.5-3.4 15.4 5.2c8.4 2.8 15.9 5.2 16.6 5.4 2 .5 9.2.3 13-.2 1.9-.3 9.6-.8 17-1.1 30.8-1.1 40.2-3.3 53-12.4 16.9-11.9 24.4-23 26.4-39 .3-2.4 2.2-10.7 4.2-18.5 2.8-11.1 3.6-16.5 3.9-25.6.2-6.3 1.1-14.7 2-18.5 3.3-14 1.7-23.6-6.7-39.5-8.3-15.8-23.8-28.3-42.3-34-8.4-2.5-22.7-5.6-31-6.5-3.3-.4-7.1-.8-8.4-1-1.3-.3-8.3-.7-15.5-1-7.2-.4-13.6-.8-14.3-1-.6-.2-1.3-.2-1.5-.1zM385 51.5c15.9.9 40.1 5.6 46.7 9 2.3 1.2 2.1 1.4-3.9 3.8-3.5 1.5-11.7 4.7-18.3 7.3-6.6 2.5-14.1 5.7-16.7 7-2.7 1.4-5.1 2.5-5.5 2.5-3.5.2-40.2 20.6-51.4 28.5l-4.7 3.3 1.4-6.2c4.3-18.3 13.9-39.9 20.9-47 4.7-4.8 8.9-8.3 10.7-9 .7-.2 3.6-.3 6.3-.1 2.8.2 9.3.5 14.5.9zm-56 1c0 .4-.8 1.9-1.8 3.3-9.2 13.2-20.2 49.4-21.9 71.6l-.6 8-6.9 7.9c-3.8 4.4-7.6 9.3-8.6 10.9-.9 1.5-1.9 2.8-2.3 2.8-2.8 0-18.9-23.4-26.2-38.1-4.9-9.8-6.1-15.2-4.4-20.4 1.9-6 12.3-20.2 21.2-29.1 9.6-9.6 17.9-14.7 26.4-16.2 5.8-.9 25.1-1.5 25.1-.7zm128.1 32.6c4 7.8 4.2 10.6 1.9 21.5-1.1 5.3-2 12.2-2 15.1 0 4-.3 5.3-1.2 4.9-.7-.2-8.9-3-18.3-6.1-23.8-7.9-31.4-9.4-46.2-9.2-6.6.1-11.6-.2-11-.6 3.5-2.4 24.6-11.8 40.7-18.2 10.2-4 21.4-8.7 25-10.4 3.6-1.7 6.9-3 7.5-2.8.5.2 2.2 2.8 3.6 5.8zm-53.6 50.3c6 1 10.4 2.2 28.9 8.3 9.2 3 17.9 5.3 19.1 5.1 2.3-.5 2.3-.5.9 4.1-1.4 4.5-2.8 10.9-3.9 18.4-1 7-3.5 10.5-13 18.2-6.4 5.2-10.4 7.2-16.1 8.1-2 .3-4.6.8-5.8 1-1.1.2-7.5.6-14.1.9-6.6.2-15.8.7-20.5 1.1-12.3.9-12.3 1-32.2-6-31.8-11.1-34-12-38.2-16-3.5-3.5-3.7-4-2.7-6.4 2.3-5 14-18.8 22.1-26.2 11.6-10.5 10.8-10.1 14.7-7.7 3.2 1.8 8.3 1.9 17.3.2 10.6-2 14.5-2.6 20-3.1 3.6-.4 6.6-.8 6.8-.9.5-.4 12.4.3 16.7.9z"/><path d="M129.5 28.8c-3.7 2.3-14.5 13.7-22.7 24C93.9 69 84.4 85.7 75.5 108c-3.8 9.7-6.9 21.8-12 48-2.5 12.9-5.2 25.7-6 28.5-.8 2.7-1.7 6.3-2 8-.3 1.6-.8 4.6-1.1 6.5-2.1 11.8.1 27 5.5 38.7 7.6 16.2 25.6 35 44.6 46.6 35.6 21.7 86.4 7.2 106.5-30.5 6.6-12.4 9-31.4 5.7-44.5-3.4-13-12.8-26.9-26.6-39.4l-7.3-6.6 3.1-10.9c6.6-23.7 8.2-33.3 6.2-38.2-1.5-3.5-.3-2.7-26.9-18.9-5.1-3.1-10.7-6.9-12.3-8.4l-2.9-2.7.7-12.8c1.1-23.2.8-29.9-1.9-35.2-4.1-8.3-12.5-11.5-19.3-7.4zm-2.7 47.9c.1 11.8.3 13.2 2.6 18.4 2.8 6.3 8.8 11.4 25.1 21.3 6.1 3.7 11.6 7.3 12.4 8.1 1.5 1.4.9 4.8-3.1 19.1l-2 7.1-4.7-2.2c-5-2.4-16.4-6.2-22.1-7.2-1.9-.4-7.6-.7-12.5-.7-10.1 0-15.4 1.9-18.8 6.6-3.8 5.1-3 7.6 11.8 35.7 7.6 14.4 7.5 13.5 1.3 16.3-13 6-18.6 18.2-14.7 32.3 2 7.4 7 16.5 9.8 18 2.3 1.1 13.4 3.2 28.1 5.1 1.9.3 4.4.6 5.5.8 10.1 1.9 14.5 1.8 17.9-.4 5.4-3.3 6.6-8.3 3.9-16.6-1.8-5.5-1.9-6.6-.7-7.8 2.2-2.3 3.3-5.9 3.9-13.8.3-4 .8-8.4 1-9.8.3-1.4.7-3.6 1-5 1.4-7.6 2.9-13 3.6-13 1.1 0 10 10.6 13.5 16.1 8 12.6 6.4 30.8-4.1 44.6-7.3 9.6-17.8 16.3-31.5 20.1-.8.2-5.7.6-10.7.8-11.8.4-19.4-1.8-29.8-8.7-15.9-10.7-29.7-26.2-34.1-38.5-2.5-7.1-2.4-20.8.4-30.4 1.2-4.1 2.4-9.1 2.7-11 3.2-19.4 11.3-55.1 14.2-63 3.7-9.9 10.7-24.6 16.3-34 3.1-5.3 12.9-19 13.5-19 .2 0 .3 4.8.3 10.7zm13.6 90.3c3.1 1 7.6 2.9 9.9 4.2 2.3 1.2 4.3 2.3 4.5 2.4.1.1-.8 4.3-2.1 9.3-2.2 8.3-4 12.2-5.1 11-1.4-1.5-14.5-28.9-13.8-28.9.5 0 3.5.9 6.6 2zm-4.2 58.1c2.3 5.1 2.4 5.9 1 5.5-.9-.3-3.8-.8-6.4-1.2-2.7-.3-4.8-.7-4.8-.8 0 0-.4-1.6-1-3.4-.8-3.1-.7-3.4 2-4.6 5.5-2.3 6.4-1.9 9.2 4.5z"/></svg>